<svg width="308" height="308" viewBox="0 0 308 308" fill="none" xmlns="http://www.w3.org/2000/svg">
<path d="M307.074 90.507C306.325 74.1144 303.721 62.9197 299.914 53.1255C296.049 42.8496 289.986 33.5418 282.152 25.8484C274.461 18.014 265.15 11.949 254.875 8.08115C245.078 4.27673 233.886 1.67545 217.493 0.930542C201.07 0.178589 195.823 0 154 0C112.177 0 106.93 0.178589 90.507 0.925842C74.1144 1.67545 62.922 4.27908 53.1255 8.08585C42.8496 11.9514 33.5418 18.014 25.8484 25.8484C18.014 33.5395 11.949 42.8472 8.08115 53.1231C4.27673 62.9197 1.67545 74.1144 0.930542 90.5046C0.178589 106.93 0 112.175 0 153.998C0 195.823 0.178589 201.07 0.930542 217.493C1.6778 233.883 4.28143 245.078 8.0882 254.875C11.9537 265.148 18.0163 274.458 25.8507 282.149C33.5418 289.984 42.8519 296.046 53.1278 299.912C62.922 303.721 74.1167 306.322 90.5093 307.072C106.935 307.821 112.18 307.998 154.002 307.998C195.825 307.998 201.072 307.821 217.495 307.072C233.888 306.322 245.08 303.721 254.877 299.912C275.563 291.913 291.915 275.56 299.914 254.875C303.723 245.078 306.325 233.883 307.074 217.493C307.821 201.068 308 195.823 308 154C308 112.175 307.821 106.93 307.074 90.507ZM279.353 216.231C278.669 231.247 276.16 239.401 274.052 244.827C268.87 258.258 258.256 268.873 244.824 274.054C239.398 276.162 231.244 278.671 216.229 279.355C199.994 280.098 195.122 280.253 154 280.253C112.875 280.253 108.006 280.098 91.7688 279.355C76.7556 278.671 68.6016 276.162 63.1735 274.054C56.4858 271.584 50.4349 267.648 45.4673 262.533C40.3517 257.565 36.4157 251.517 33.946 244.827C31.8382 239.401 29.3285 231.247 28.6447 216.231C27.9045 199.994 27.7471 195.122 27.7471 154.002C27.7471 112.88 27.9045 108.011 28.6447 91.7712C29.3309 76.7556 31.8382 68.6016 33.946 63.1758C36.4157 56.4858 40.354 50.4349 45.4673 45.4673C50.4349 40.3517 56.4858 36.4157 63.1758 33.9483C68.6016 31.8382 76.7556 29.3309 91.7712 28.6447C108.009 27.9045 112.88 27.7471 154 27.7471H153.998C195.118 27.7471 199.989 27.9045 216.229 28.6471C231.244 29.3309 239.396 31.8405 244.824 33.9483C251.512 36.418 257.563 40.354 262.53 45.4673C267.646 50.4349 271.582 56.4858 274.049 63.1758C276.16 68.6016 278.669 76.7556 279.353 91.7712C280.093 108.009 280.251 112.88 280.251 154C280.251 195.122 280.096 199.991 279.353 216.231Z" fill="url(#paint0_linear_49190_5469)"/>
<path d="M153.97 74.8906C110.296 74.8906 74.8906 110.298 74.8906 153.973C74.8906 197.647 110.296 233.052 153.97 233.052C197.647 233.052 233.052 197.647 233.052 153.973C233.052 110.298 197.647 74.8906 153.97 74.8906ZM153.97 205.305C125.622 205.303 102.638 182.321 102.64 153.97C102.64 125.622 125.622 102.638 153.973 102.638C182.324 102.64 205.305 125.622 205.305 153.97C205.305 182.321 182.321 205.305 153.97 205.305Z" fill="url(#paint1_linear_49190_5469)"/>
<path d="M254.742 71.8253C254.742 82.0308 246.468 90.3046 236.263 90.3046C226.055 90.3046 217.781 82.0308 217.781 71.8253C217.781 61.6176 226.055 53.3438 236.263 53.3438C246.468 53.3438 254.742 61.6176 254.742 71.8253Z" fill="url(#paint2_linear_49190_5469)"/>
<defs>
<linearGradient id="paint0_linear_49190_5469" x1="25.8468" y1="282.151" x2="282.153" y2="25.8443" gradientUnits="userSpaceOnUse">
<stop stop-color="#FFD600"/>
<stop offset="0.5" stop-color="#FF0100"/>
<stop offset="1" stop-color="#D800B9"/>
</linearGradient>
<linearGradient id="paint1_linear_49190_5469" x1="98.0531" y1="209.89" x2="209.89" y2="98.0531" gradientUnits="userSpaceOnUse">
<stop stop-color="#FF6400"/>
<stop offset="0.5" stop-color="#FF0100"/>
<stop offset="1" stop-color="#FD0056"/>
</linearGradient>
<linearGradient id="paint2_linear_49190_5469" x1="223.195" y1="84.8913" x2="249.329" y2="58.7572" gradientUnits="userSpaceOnUse">
<stop stop-color="#F30072"/>
<stop offset="1" stop-color="#E50097"/>
</linearGradient>
</defs>
</svg>
