<svg width="1683" height="841" viewBox="0 0 1683 841" fill="none" xmlns="http://www.w3.org/2000/svg">
<path fill-rule="evenodd" clip-rule="evenodd" d="M66.3167 537.841C60.4524 565.343 9.69924 821.237 9.70313 823.287C9.70701 825.136 17.6898 825.709 43.2033 825.689L76.6996 825.664L85.3756 781.913C90.1466 757.852 94.5157 737.422 95.0847 736.514C95.6536 735.607 119.711 734.436 148.547 733.915C187.845 733.203 204.02 732.183 213.131 729.842C252.882 719.628 278.728 691.854 289.752 647.509C295.806 623.147 296.008 580.137 290.128 567.432C282.936 551.896 269.429 541.433 248.552 535.235C232.051 530.334 203.762 528.685 135.601 528.65L68.2838 528.617L66.3167 537.841ZM115.734 628.966C110.697 654.408 106.128 676.754 105.584 678.622C104.677 681.735 106.683 682.017 129.484 681.97C165.932 681.896 191.302 679.026 201.861 673.779C216.576 666.468 224.307 650.188 226.53 621.824C228.099 601.802 224.798 594.06 212.207 588.248C203.784 584.359 199.282 583.901 163.906 583.334L124.895 582.708L115.734 628.966ZM593.865 596.625C553.067 603.511 524.387 623.222 507.252 656.156C487.739 693.662 478.888 757.998 489.415 785.808C502.108 819.349 533.649 833.072 593.222 830.977C636.501 829.455 660.488 821.359 684.105 800.312C712.469 775.031 728.974 727.717 729.095 671.341C729.145 648.081 728.751 645.256 724.075 635.417C714.43 615.111 697.709 603.268 670.574 597.519C656.282 594.491 609.727 593.95 593.865 596.625ZM441.093 598.559C431.123 599.942 417.997 604.944 401.65 613.585C400.949 613.956 401.08 611.135 401.942 607.315L403.507 600.369L372.236 600.903L340.967 601.435L319.141 711.148C307.135 771.49 297.264 821.953 297.204 823.287C297.121 825.136 304.74 825.715 329.135 825.715C346.757 825.715 361.175 825.4 361.175 825.016C361.175 823.695 390.394 679.098 392.794 668.55C395.173 658.088 395.291 657.958 405.855 654.227C413.822 651.414 423.768 650.212 445.188 649.472C472.381 648.532 473.907 648.268 474.804 644.377C477.197 633.972 483.385 599.691 482.946 599.255C481.317 597.625 451.409 597.128 441.093 598.559ZM597.529 645.975C574.064 654.346 562.305 673.405 554.32 716.002C550.325 737.308 551.151 760.802 556.161 768.449C563.178 779.158 586.637 784.865 607.968 781.051C638.156 775.655 651.48 758.241 660.393 712.536C668.392 671.521 663.372 652.221 642.934 645.39C633.983 642.398 606.564 642.751 597.529 645.975Z" fill="white"/>
<path d="M593.865 596.626C609.727 593.95 656.282 594.492 670.574 597.519C697.709 603.269 714.429 615.112 724.074 635.417C728.75 645.256 729.144 648.081 729.094 671.34C728.973 727.717 712.468 775.031 684.104 800.312C660.488 821.359 636.501 829.455 593.222 830.977C533.649 833.072 502.108 819.35 489.414 785.809C478.888 757.998 487.74 693.661 507.253 656.155C524.388 623.222 553.068 603.512 593.865 596.626ZM441.093 598.559C451.41 597.128 481.316 597.625 482.946 599.254C483.385 599.691 477.196 633.973 474.803 644.377C473.906 648.268 472.379 648.533 445.187 649.472C423.767 650.212 413.821 651.415 405.854 654.228C395.291 657.958 395.173 658.089 392.794 668.551C390.393 679.104 361.185 823.644 361.175 825.015C361.175 825.399 346.757 825.715 329.135 825.715C304.74 825.715 297.12 825.136 297.203 823.287C297.264 821.953 307.135 771.49 319.142 711.148L340.966 601.435L403.506 600.369L401.942 607.316C401.08 611.134 400.949 613.955 401.65 613.585C417.996 604.944 431.124 599.941 441.093 598.559ZM135.601 528.649C203.762 528.684 232.05 530.334 248.552 535.235C269.428 541.434 282.936 551.896 290.128 567.433C296.008 580.138 295.805 623.146 289.751 647.508C278.727 691.853 252.882 719.627 213.131 729.841C204.02 732.183 187.844 733.202 148.547 733.915C119.711 734.435 95.6531 735.608 95.0841 736.515C94.5128 737.436 90.1445 757.861 85.3751 781.914L76.6995 825.663L43.2032 825.69C17.6898 825.709 9.70701 825.136 9.70313 823.287C9.69924 821.237 60.453 565.343 66.3172 537.841L68.2837 528.617L135.601 528.649ZM351.502 824.171C351.497 824.234 351.493 824.297 351.489 824.361C351.494 824.284 351.498 824.22 351.502 824.171ZM632.695 604.642C618.25 604.474 604.32 604.955 596.88 605.986L595.48 606.199C557.29 612.644 531.42 630.741 515.866 660.636C506.767 678.125 499.92 702.437 496.687 725.941C493.404 749.801 494.123 770.822 498.494 782.371L498.496 782.373C503.922 796.709 513.112 806.545 527.612 812.854C542.597 819.374 563.692 822.3 592.881 821.274C634.728 819.802 656.251 812.131 677.645 793.064C703.119 770.36 719.267 726.284 719.385 671.32L719.389 667.153C719.377 658.059 719.233 653.209 718.742 649.69C718.266 646.285 717.479 644.158 715.306 639.585C707.514 623.182 694.36 612.956 670.868 607.528L668.562 607.016C662.48 605.728 648.176 604.822 632.695 604.642ZM465.115 607.467C456.173 607.319 446.775 607.573 442.426 608.177C434.154 609.324 422.227 613.688 406.19 622.166C405.083 622.751 403.365 623.393 401.21 623.322C398.921 623.247 396.913 622.393 395.388 621.181C392.809 619.133 392.081 616.484 391.901 615.813C391.417 614.009 391.476 612.303 391.51 611.573C391.53 611.158 391.563 610.725 391.607 610.281L348.961 611.008L328.663 713.042C322.661 743.206 317.195 770.897 313.221 791.21C311.235 801.367 309.623 809.671 308.505 815.513C308.492 815.582 308.479 815.652 308.466 815.721C313.111 815.916 319.783 816.006 329.135 816.006C337.898 816.006 345.834 815.927 351.551 815.803C352.071 815.791 352.57 815.775 353.048 815.763C353.846 811.699 354.946 806.156 356.256 799.593C359.035 785.677 362.765 767.141 366.568 748.321C374.152 710.793 382.091 671.826 383.326 666.397L383.749 664.554C384.175 662.72 384.62 660.931 385.137 659.369C385.878 657.133 386.993 654.612 389.081 652.322C391.145 650.06 393.538 648.704 395.659 647.735C397.671 646.817 400.12 645.956 402.621 645.073C412.165 641.702 423.507 640.506 444.853 639.769C456.199 639.377 462.486 639.1 466.092 638.732C467.274 633.077 468.934 624.381 470.383 616.353C470.944 613.248 471.464 610.28 471.91 607.67C469.84 607.578 467.536 607.508 465.115 607.467ZM75.812 539.866C72.8983 553.531 58.763 624.282 45.3327 691.997C38.6231 725.827 32.0971 758.859 27.2496 783.558C24.8256 795.909 22.8239 806.17 21.428 813.402C21.2735 814.202 21.129 814.965 20.9899 815.689C25.9021 815.897 33.0539 815.989 43.1956 815.981L68.7255 815.96L75.8518 780.025C78.2441 767.961 80.5383 756.788 82.3106 748.501C83.1953 744.364 83.9585 740.906 84.5426 738.401C84.8322 737.159 85.0948 736.085 85.3144 735.255C85.4215 734.85 85.5429 734.412 85.6709 734.004C85.7334 733.804 85.8247 733.519 85.944 733.205C86.0012 733.055 86.3007 732.249 86.8561 731.362L86.8599 731.353C88.5087 728.725 90.9065 727.717 91.1702 727.596C91.9119 727.257 92.563 727.068 92.9072 726.974C93.6394 726.774 94.3554 726.65 94.8661 726.57C95.9573 726.4 97.3116 726.255 98.7705 726.127C101.744 725.865 105.854 725.61 110.744 725.372C120.558 724.895 133.883 724.469 148.37 724.207C188.135 723.486 202.965 722.43 210.715 720.438C246.555 711.228 270.046 686.53 280.328 645.168L280.835 643.017C283.29 632.001 284.641 617.057 284.707 603.053C284.742 595.641 284.415 588.711 283.757 582.988C283.067 576.994 282.104 573.213 281.316 571.51C275.597 559.159 264.769 550.178 245.789 544.542C230.943 540.133 204.286 538.394 135.595 538.358L76.1382 538.328L75.812 539.866ZM620.138 633.644C624.941 633.582 629.812 633.722 634.155 634.091C638.31 634.444 642.643 635.055 646.013 636.181C652.339 638.296 657.954 641.548 662.469 646.332C666.991 651.123 669.979 656.993 671.723 663.7C675.106 676.711 673.981 693.589 669.923 714.394C665.394 737.62 659.494 755.231 649.87 767.809C639.831 780.929 626.53 787.596 609.676 790.608C597.677 792.754 585.115 792.236 574.401 789.63C564.153 787.137 553.575 782.215 548.041 773.769C545.778 770.316 544.484 765.982 543.675 761.921C542.827 757.662 542.34 752.798 542.16 747.688C541.801 737.468 542.651 725.554 544.777 714.214C548.844 692.515 554.049 675.71 561.857 663.056C569.919 649.99 580.515 641.736 594.267 636.83C600.459 634.621 611.035 633.761 620.138 633.644ZM642.935 645.39C633.984 642.397 606.564 642.752 597.528 645.976C574.064 654.347 562.304 673.405 554.319 716.002C550.325 737.308 551.151 760.801 556.161 768.448C563.178 779.157 586.637 784.865 607.968 781.051C638.155 775.655 651.48 758.24 660.393 712.536C668.391 671.521 663.372 652.221 642.935 645.39ZM164.062 573.626C198.695 574.181 205.58 574.495 216.275 579.432C223.859 582.933 230.135 587.754 233.609 595.898C236.591 602.889 236.974 611.203 236.347 620.673L236.209 622.583C233.916 651.827 225.687 672.782 206.181 682.474C199.278 685.904 188.838 688.062 176.472 689.462C163.778 690.898 147.94 691.641 129.504 691.678C118.487 691.701 111.396 691.671 107.296 691.096C106.172 690.939 104.835 690.687 103.498 690.214C102.202 689.756 100.213 688.851 98.5108 686.958C94.3391 682.32 95.9749 676.891 96.2617 675.907C96.2239 676.037 96.2846 675.823 96.4931 674.887C96.6694 674.094 96.904 673.006 97.1928 671.642C97.7695 668.919 98.5428 665.179 99.4608 660.689C101.296 651.713 103.694 639.786 106.21 627.081L116.947 572.871L164.062 573.626ZM115.735 628.966C110.698 654.407 106.128 676.754 105.584 678.622C104.677 681.735 106.683 682.016 129.483 681.969C165.931 681.895 191.302 679.026 201.861 673.779C216.576 666.468 224.307 650.188 226.53 621.824C228.099 601.802 224.798 594.06 212.207 588.248C203.784 584.359 199.282 583.9 163.907 583.333L124.896 582.709L115.735 628.966Z" fill="black"/>
<path d="M594.005 586.745C603.177 585.456 618.482 585.02 632.927 585.188C648.262 585.367 664.382 586.245 672.592 587.984C701.917 594.197 721.603 607.534 732.851 631.212L733.753 633.144C735.776 637.562 737.21 641.47 737.978 646.966C738.671 651.924 738.806 658.118 738.813 667.234L738.809 671.324C738.685 729.113 721.825 779.666 690.571 807.522C664.732 830.55 638.28 839.07 593.569 840.643C563.185 841.712 538.723 838.824 519.871 830.621C500.535 822.208 487.607 808.412 480.339 789.208C474.185 772.946 474.068 747.893 477.457 723.258C480.895 698.265 488.23 671.653 498.644 651.637C517.359 615.666 548.851 594.34 592.255 587.015L594.005 586.745ZM439.764 588.905C445.732 588.077 456.448 587.864 465.446 588.014C470.041 588.09 474.474 588.266 477.944 588.541C479.652 588.677 481.315 588.851 482.715 589.085C483.395 589.199 484.246 589.367 485.103 589.622C485.531 589.75 486.139 589.952 486.811 590.265C487.368 590.524 488.601 591.142 489.802 592.338L490.075 592.62C491.388 594.038 491.934 595.476 492.128 596.033C492.389 596.781 492.503 597.406 492.557 597.746C492.665 598.431 492.679 598.987 492.682 599.221C492.689 599.748 492.657 600.207 492.638 600.442C492.596 600.98 492.525 601.577 492.453 602.124C492.302 603.266 492.069 604.793 491.787 606.539C491.218 610.058 490.399 614.774 489.498 619.766C487.709 629.68 485.526 641.06 484.272 646.515V646.521C483.95 647.916 483.114 651.34 479.895 654.06C477.128 656.399 473.817 657.166 471.51 657.563C466.787 658.375 458.726 658.682 445.529 659.139C424.035 659.881 415.484 661.088 409.093 663.345C406.313 664.326 404.786 664.88 403.73 665.362C403.674 665.388 403.621 665.415 403.573 665.438C403.324 666.189 403.07 667.196 402.691 668.821L402.266 670.666C401.101 675.789 393.233 714.394 385.607 752.129C381.806 770.942 378.08 789.462 375.305 803.358C373.917 810.308 372.769 816.093 371.969 820.176C371.569 822.221 371.258 823.822 371.049 824.925C370.944 825.48 370.871 825.88 370.826 826.136C370.817 826.187 370.81 826.225 370.805 826.254C370.377 829.585 368.362 831.623 367.473 832.381C366.391 833.304 365.361 833.768 364.951 833.943C364.048 834.329 363.274 834.495 363.04 834.545C362.419 834.677 361.846 834.743 361.549 834.774C360.851 834.848 360.007 834.903 359.15 834.947C357.38 835.037 354.916 835.116 351.982 835.18C346.085 835.309 338 835.387 329.141 835.387C316.984 835.387 308.626 835.246 303.26 834.839C300.696 834.644 298.139 834.346 296.03 833.735C295.04 833.448 293.278 832.856 291.6 831.552C289.633 830.023 287.32 827.053 287.512 822.812L287.565 822.15C287.638 821.487 287.752 820.871 287.766 820.793C287.854 820.278 287.976 819.592 288.128 818.767C288.433 817.108 288.876 814.764 289.438 811.827C290.563 805.946 292.181 797.612 294.17 787.444C298.148 767.106 303.62 739.394 309.624 709.216L332.977 591.824L415.7 590.413L414.285 596.688C423.803 592.607 432.324 589.937 439.764 588.905ZM135.612 518.903L147.857 518.93C206.937 519.149 234.301 520.835 251.323 525.891C273.382 532.441 289.26 543.855 298.11 561.581L298.944 563.317C301.096 567.966 302.315 574.327 303.052 580.732C303.82 587.407 304.168 595.135 304.131 603.109C304.056 618.942 302.458 636.619 299.18 649.813C287.415 697.139 259.213 727.988 215.553 739.206C205.08 741.898 187.559 742.882 148.729 743.587C134.381 743.846 121.258 744.265 111.692 744.73C108.215 744.899 105.256 745.073 102.901 745.242C102.448 747.258 101.908 749.709 101.306 752.524C99.559 760.694 97.2829 771.767 94.9043 783.764L84.6794 835.33L43.2167 835.362C30.4978 835.372 21.7852 835.237 16.1982 834.837C13.5133 834.644 10.9171 834.353 8.79886 833.775C7.80257 833.503 6.09527 832.958 4.44495 831.774C2.59261 830.446 0.00936816 827.636 1.69292e-05 823.271C-0.000936931 822.767 0.0387 822.365 0.0474245 822.276C0.0630884 822.114 0.0801492 821.979 0.0910394 821.896C0.113226 821.727 0.13745 821.569 0.155514 821.454C0.19323 821.216 0.240549 820.935 0.292047 820.643C0.397066 820.047 0.547558 819.229 0.735782 818.223C1.11397 816.202 1.66626 813.312 2.3666 809.684C3.76837 802.422 5.77637 792.138 8.20152 779.781C13.0524 755.064 19.5812 722.019 26.2922 688.182C39.7034 620.563 53.8757 549.617 56.8265 535.778L60.4333 518.867L135.612 518.903ZM670.58 597.482C656.288 594.455 609.733 593.913 593.871 596.589C553.074 603.475 524.394 623.185 507.259 656.118C487.746 693.624 478.894 757.961 489.42 785.772C502.114 819.312 533.655 833.035 593.228 830.94C636.507 829.417 660.494 821.322 684.11 800.275C712.474 774.994 728.979 727.68 729.1 671.303C729.15 648.044 728.756 645.219 724.08 635.38C714.435 615.074 697.715 603.232 670.58 597.482ZM370.818 826.136C370.825 826.081 370.839 825.984 370.85 825.86C370.851 825.849 370.851 825.833 370.852 825.814C370.843 825.923 370.83 826.03 370.818 826.136ZM482.952 599.217C481.322 597.588 451.416 597.09 441.099 598.521C431.13 599.904 418.002 604.907 401.656 613.548C400.955 613.918 401.086 611.097 401.948 607.278L403.512 600.332L340.972 601.398L319.148 711.11C307.141 771.452 297.27 821.916 297.209 823.25C297.126 825.099 304.746 825.677 329.141 825.677C346.763 825.677 361.181 825.362 361.181 824.978C361.191 823.607 390.399 679.067 392.8 668.514C395.179 658.052 395.297 657.921 405.86 654.191C413.827 651.377 423.773 650.175 445.193 649.435C472.385 648.495 473.912 648.231 474.809 644.34C477.202 633.936 483.391 599.654 482.952 599.217ZM66.3232 537.804C60.4589 565.306 9.7052 821.2 9.70908 823.25C9.71297 825.099 17.6957 825.672 43.2092 825.653L76.7054 825.626L85.381 781.877C90.1505 757.824 94.5188 737.399 95.0901 736.477C95.659 735.57 119.717 734.398 148.553 733.877C187.85 733.165 204.026 732.146 213.137 729.804C252.888 719.59 278.733 691.816 289.757 647.471C295.811 623.109 296.014 580.101 290.134 567.395C282.942 551.859 269.434 541.396 248.558 535.198C232.056 530.297 203.768 528.647 135.606 528.612L68.2897 528.58L66.3232 537.804ZM370.867 825.626C370.878 825.466 370.89 825.239 370.89 824.978C370.89 825.198 370.881 825.415 370.867 825.626ZM597.534 645.938C606.57 642.715 633.99 642.36 642.941 645.352C663.378 652.184 668.397 671.484 660.399 712.499C651.486 758.203 638.161 775.618 607.973 781.014C586.643 784.827 563.184 779.12 556.166 768.411C551.157 760.764 550.331 737.27 554.325 715.965C562.31 673.368 574.07 654.31 597.534 645.938ZM620.394 653.023C611.292 653.14 603.642 654.068 600.798 655.082C591.085 658.547 584.068 664.009 578.387 673.215C572.454 682.832 567.787 696.855 563.869 717.753C562.001 727.718 561.265 738.205 561.573 746.97C561.727 751.351 562.135 755.127 562.726 758.089C563.355 761.25 564.046 762.719 564.288 763.09C565.771 765.353 570.43 768.64 578.998 770.725C587.1 772.695 596.934 773.125 606.265 771.457C619.599 769.073 628.055 764.334 634.453 755.971C641.266 747.067 646.486 733.118 650.87 710.64C654.811 690.431 655.173 677.151 652.937 668.55C651.871 664.452 650.272 661.655 648.355 659.624C646.432 657.586 643.754 655.862 639.862 654.561C638.755 654.191 636.303 653.724 632.517 653.402C628.92 653.097 624.694 652.968 620.394 653.023ZM163.913 583.296C199.288 583.863 203.79 584.322 212.213 588.211C224.804 594.023 228.105 601.765 226.536 621.787C224.313 650.151 216.582 666.431 201.867 673.742C191.307 678.989 165.937 681.858 129.489 681.932C106.689 681.979 104.683 681.698 105.59 678.585C106.134 676.717 110.704 654.37 115.741 628.929L124.902 582.672L163.913 583.296ZM125.264 630.815C122.743 643.551 120.337 655.517 118.492 664.541C117.923 667.326 117.388 669.905 116.917 672.17C119.949 672.22 124.016 672.234 129.47 672.223L132.813 672.21C149.352 672.095 163.286 671.375 174.295 670.13C186.365 668.764 193.891 666.864 197.547 665.047C207.471 660.117 214.703 648.512 216.857 621.029L216.984 619.256C217.539 610.666 216.902 606.173 215.754 603.48C214.821 601.294 213.15 599.338 208.144 597.027C201.992 594.187 199.874 593.584 163.757 593.005L132.849 592.508L125.264 630.815Z" fill="#FF0004"/>
<path fill-rule="evenodd" clip-rule="evenodd" d="M925.925 522.742C892.211 525.989 870.832 532.034 848.215 544.71C796.324 573.794 763.162 644.352 762.7 726.658C762.488 764.372 769.727 785.708 788.782 803.532C808.998 822.441 835.747 829.78 885.486 830.063C915.655 830.236 964.349 826.675 968.503 823.995C969.986 823.038 980.635 778.737 980.635 773.527C980.635 772.848 958.136 772.29 930.634 772.29C886.203 772.29 879.337 771.865 869.004 768.48C853.666 763.457 842.233 752.251 838.04 738.136C831.483 716.05 836.271 671.176 848.355 641.48C861.833 608.36 878.946 591.968 908.788 583.593C919.538 580.575 928.785 580.06 971.155 580.115L1020.9 580.177L1026.3 555.314C1029.26 541.64 1031.22 529.983 1030.64 529.408C1025.73 524.497 954.669 519.973 925.925 522.742ZM1115.59 597.785C1100.64 599.275 1086.7 601.207 1084.61 602.081C1081.59 603.343 1079.73 608.644 1075.58 627.784C1072.7 641.047 1070.6 652.16 1070.9 652.48C1071.2 652.799 1077.45 651.944 1084.78 650.579C1092.91 649.065 1114.4 648.08 1139.86 648.055C1185.95 648.01 1192.25 649.368 1196.41 660.244C1198.42 665.487 1197.24 683.229 1194.64 686.868C1193.8 688.047 1175.57 688.792 1147.63 688.792C1096.57 688.792 1086.68 690.198 1064.9 700.554C1041.62 711.622 1027.77 732.075 1022.29 763.445C1014.05 810.653 1041.61 833.69 1102.97 830.89C1127.58 829.768 1143.61 825.657 1160.98 816.02L1171.42 810.229L1170.18 817.96L1168.94 825.69H1200.8C1232.22 825.69 1232.66 825.632 1233.7 821.321C1234.28 818.919 1241.08 785.058 1248.8 746.076C1268.13 648.533 1268.19 631.342 1249.27 613.761C1241.32 606.376 1228.73 600.552 1213.93 597.416C1197.63 593.96 1152.32 594.131 1115.59 597.785ZM1561.24 596.684C1523.13 602.378 1499.06 624.258 1490.38 661.085C1484.36 686.604 1487.34 702.053 1500.79 715.007C1512.87 726.638 1522.84 729.893 1561.19 734.704C1595.47 739.008 1603.22 741.505 1605.06 748.841C1606.96 756.375 1601.7 771.382 1595.56 775.97C1590.85 779.492 1586.82 780.151 1566.44 780.731C1553.43 781.104 1529.25 780.345 1512.69 779.048C1496.14 777.751 1479.99 776.572 1476.81 776.43L1471.03 776.174L1465.97 800.048C1463.19 813.179 1461.42 824.22 1462.05 824.581C1466.26 827.038 1518.04 830.488 1549.59 830.417C1592.27 830.319 1606.17 827.97 1625.73 817.55C1653.21 802.899 1669.92 770.436 1667.72 735.943C1665.76 705.129 1648.12 693.181 1595.22 686.821C1580.27 685.023 1565.23 682.386 1561.79 680.961C1553.73 677.611 1551.98 670.929 1556.25 659.758C1562.28 643.942 1574.57 642 1644.92 645.74L1675.21 647.352L1679.6 623.782C1682.02 610.821 1683.48 599.702 1682.85 599.073C1679.23 595.455 1582.22 593.548 1561.24 596.684ZM1434.12 598.632C1424.61 599.735 1416.21 602.389 1405.75 607.601L1390.89 615.003L1392.57 609.192C1393.49 605.993 1394.24 602.718 1394.24 601.91C1394.24 601.1 1380.32 600.44 1363.3 600.44C1335.52 600.44 1332.26 600.785 1331.35 603.838C1330.13 607.949 1287.44 822.23 1287.44 824.261C1287.44 825.047 1301.69 825.69 1319.1 825.69H1350.76L1367.82 742.685C1377.2 697.031 1385.89 659.018 1387.13 658.209C1394.74 653.245 1411.12 650.395 1437.21 649.496L1465.61 648.519L1470.24 623.994L1474.88 599.469L1468.05 598.125C1459.7 596.476 1451.7 596.597 1434.12 598.632ZM1114.44 732.508C1109.53 733.337 1103.56 735.202 1101.17 736.648C1092.34 741.994 1085.33 763.581 1089.15 773.644C1092.18 781.613 1101.77 783.714 1129.08 782.392C1144.6 781.642 1156.9 779.887 1165.59 777.182C1172.8 774.941 1178.7 772.76 1178.7 772.339C1178.7 771.917 1179.91 765.618 1181.4 758.338C1182.88 751.06 1184.66 741.829 1185.37 737.823L1186.64 730.541L1155 730.77C1137.6 730.895 1119.34 731.677 1114.44 732.508Z" fill="white"/>
<path fill-rule="evenodd" clip-rule="evenodd" d="M917.178 0.969085C809.333 6.69321 764.627 22.6293 603.979 112.621C582.092 124.883 564.461 135.194 564.802 135.535C565.66 136.394 619.361 111.15 686.495 78.3278C749.251 47.6456 762.834 42.8341 803.448 36.9028C835.366 32.2403 869.621 30.201 937.683 28.9116C998.494 27.761 1022.27 28.7541 1022.27 32.4492C1022.27 34.7864 1007.94 48.8151 972.335 81.3311C959.487 93.0653 941.174 110.996 931.639 121.179C922.104 131.36 912.145 140.809 909.507 142.175C904.306 144.872 861.905 150.26 822.342 153.255C720.421 160.971 711.539 163.07 539.542 220.112C413.382 261.953 416.682 260.998 390.88 263.145C356.99 265.967 264.025 262.322 259.714 258.002C255.59 253.87 300.886 223.277 337.344 205.568C382.637 183.567 441.669 166.102 505.367 155.854C520.404 153.435 533.476 151.103 534.416 150.671C535.355 150.238 521.13 150.231 502.803 150.652C379.622 153.49 257.67 192.161 222.828 239.432C215.171 249.82 210.606 258.224 210.606 261.926C210.606 263.371 212.714 265.053 215.305 265.672C222.633 267.428 224.515 269.527 222.365 273.552C220.768 276.542 219.431 276.85 212.22 275.891C204.803 274.905 203.653 275.205 201.47 278.689C197.081 285.701 196.636 295.461 198.827 336.656C200.818 374.075 200.736 379.187 197.792 401.582C194.295 428.174 194.676 430.443 203.048 432.775C214.363 435.929 249.845 440.977 260.711 440.977C270.889 440.977 272.3 440.596 271.815 437.98C271.263 435.013 257.473 430.847 230.683 425.552L220.858 423.611V416.027C220.858 409.936 221.448 408.448 223.848 408.469C225.494 408.483 239.911 409.216 255.888 410.099C271.865 410.983 312.618 412.546 346.452 413.572C423.821 415.917 449.765 417.688 456.074 421.051C458.75 422.477 465.028 427.047 470.028 431.21C475.026 435.37 482.715 440.619 487.115 442.872L495.114 446.969L575.291 446.654C619.387 446.48 657.14 445.916 659.186 445.403C662.81 444.492 662.884 443.928 662.096 423.441C661.153 398.861 663.376 379.468 670.365 351.363C687.163 283.793 718.608 243.399 766.807 227.475C778.946 223.465 783.254 222.946 805.254 222.847C818.881 222.785 840.796 223.388 853.954 224.186C879.132 225.71 895.682 224.263 988.946 212.381C1093.97 198.998 1159.97 192.682 1292.5 183.323C1330.58 180.634 1374.55 179.853 1376.53 181.829C1377.14 182.444 1372.06 188.802 1365.24 195.956C1342.41 219.9 1328.11 242.87 1313.82 278.561C1301.34 309.729 1296.79 318.356 1287.62 328.17C1272.8 344.045 1263.27 346.599 1182.89 356.217C1136.79 361.734 1105.9 365.465 975.276 381.288C950.84 384.249 930.32 387.139 929.676 387.711C928.081 389.127 920.665 421.927 921.706 422.969C922.824 424.088 968.61 419.982 1035.94 412.722C1084.69 407.464 1259.69 390.079 1296.08 386.877C1303.36 386.239 1309.96 384.857 1310.76 383.809C1311.56 382.761 1315.45 370.731 1319.4 357.075C1335.3 302.116 1338.81 290.692 1343.06 280.023C1354.8 250.545 1374.19 227.453 1395.88 217.133C1406.85 211.909 1410.66 210.962 1421.02 210.88C1431.22 210.799 1435.07 211.654 1444.52 216.092C1474.75 230.304 1492.73 264.422 1502.94 326.937L1506.82 350.738L1511.45 339.78C1529.27 297.55 1533.1 231.927 1520.06 192.382C1514.61 175.847 1502.88 157.267 1490.81 146.038C1483.41 139.156 1481.02 137.905 1475.25 137.905C1457.83 137.905 1415.87 119.4 1368.29 90.74C1312.42 57.0802 1272.49 39.7401 1212.79 23.2064C1174.5 12.6006 1142.84 7.01513 1095.74 2.55124C1070.3 0.140365 952.471 -0.90414 917.178 0.969085ZM1086.82 35.0912C1074.53 37.3634 1060.58 44.4762 1047.19 55.2943C1023.64 74.3245 940.198 158.974 942.608 161.39C943.626 162.411 1018.24 159.053 1102.58 154.193C1142.52 151.89 1191.73 149.192 1211.94 148.195C1303.62 143.671 1338.93 135.567 1344.28 117.823C1345.19 114.803 1343.73 112.188 1337.29 105.284C1309.84 75.8809 1240.87 47.3151 1174.24 37.7504C1152.8 34.6751 1098.09 33.0091 1086.82 35.0912ZM668.553 234.737C667.144 235.038 657.916 236.542 648.048 238.077C560.724 251.664 454.958 273.845 454.958 278.569C454.958 280.807 477.545 299.027 483.525 301.615C492.741 305.604 527.707 304.241 579.698 297.867C618.55 293.103 640.897 284.764 658.453 268.477C668.968 258.721 676.092 248.409 678.765 239.072C680.192 234.086 680.021 233.802 675.696 233.99C673.177 234.1 669.963 234.436 668.553 234.737ZM1400.78 248.534C1394.22 250.628 1389.49 254.079 1380.27 263.5C1357.1 287.184 1345.16 322.249 1345.28 366.253C1345.39 402.651 1352.38 427.198 1366.56 440.963L1372.72 446.94L1367.38 435.129C1356.06 410.125 1351.94 382.532 1355.46 355.363C1360.46 316.83 1374.07 291.689 1396.74 279.104C1404.62 274.729 1407.65 274.035 1418.7 274.069C1428.48 274.1 1433.16 274.984 1438.47 277.799C1452.37 285.179 1463.14 301.584 1469.14 324.542C1474.69 345.742 1472.13 388.733 1463.93 412.01C1462.53 415.993 1461.72 419.594 1462.14 420.013C1463.64 421.515 1473.43 399.762 1477.91 384.98C1481.98 371.58 1482.5 366.988 1482.63 343.377C1482.79 314.527 1480.71 302.846 1472.36 285.588C1458.44 256.865 1426.49 240.322 1400.78 248.534ZM784.749 260.695C764.668 263.887 740.935 278.256 726.709 295.838C715.231 310.025 703.699 333.754 699.031 352.795C696.069 364.869 695.275 373.023 695.353 390.464C695.475 416.637 699.031 432.568 708.989 451.558C714.792 462.623 731.242 483.177 732.938 481.479C733.327 481.088 730.926 475.811 727.601 469.749C705.386 429.249 703.762 376.886 723.563 339.564C739.991 308.601 772.376 289.548 802.992 292.834C825.322 295.23 851.197 314.183 862.41 336.355C871.73 354.784 874.594 386.934 869.233 412.94C866.182 427.742 858.033 451.762 852.023 463.664C849.764 468.137 848.337 471.797 848.851 471.797C851.051 471.797 861.429 458.481 869.467 445.348C878.765 430.155 887.656 405.957 890.576 387.896C899.907 330.175 869.081 276.261 819.779 264.08C808.484 261.289 791.398 259.638 784.749 260.695ZM243.926 285.081C235.384 288.622 230.28 298.173 224.289 321.82C219.944 338.975 219.901 353.94 224.17 363.363C229.576 375.295 233.855 376.773 278.956 382.278C311.662 386.269 450.143 386.787 464.968 382.972C475.566 380.246 484.419 373.184 489.33 363.539L492.741 356.837L489.164 349.433C482.927 336.524 433.718 291.613 422.49 288.584C409.601 285.107 251.356 282.002 243.926 285.081ZM588.242 376.381C587.772 376.813 576.362 377.688 562.887 378.324C549.412 378.96 534.537 380.211 529.831 381.107C518.953 383.174 503.193 391.555 495.786 399.214C490.318 404.868 490.164 405.365 492.578 409.627C493.973 412.089 497.289 415.719 499.948 417.695C504.616 421.16 506.602 421.284 557.192 421.225C586.017 421.193 613.253 420.568 617.718 419.837L625.834 418.506V406.572C625.834 384.444 619.937 377.136 601.334 376.206C594.603 375.869 588.711 375.948 588.242 376.381Z" fill="white"/>
</svg>
