<svg width="308" height="308" viewBox="0 0 308 308" fill="none" xmlns="http://www.w3.org/2000/svg">
<g clip-path="url(#clip0_49190_5468)">
<path d="M0 103.95C0 66.8017 0 48.2276 7.45837 34.1412C13.4772 22.7736 22.7736 13.4772 34.1412 7.45837C48.2276 0 66.8017 0 103.95 0H204.05C241.198 0 259.772 0 273.859 7.45837C285.226 13.4772 294.523 22.7736 300.542 34.1412C308 48.2276 308 66.8017 308 103.95V204.05C308 241.198 308 259.772 300.542 273.859C294.523 285.226 285.226 294.523 273.859 300.542C259.772 308 241.198 308 204.05 308H103.95C66.8017 308 48.2276 308 34.1412 300.542C22.7736 294.523 13.4772 285.226 7.45837 273.859C0 259.772 0 241.198 0 204.05V103.95Z" fill="#0FABEE"/>
<path d="M195.126 241.362L119.04 182.584L206.54 100.091C210.347 96.5513 205.718 94.5929 200.628 98.1323L92.4571 169.199L45.8881 153.99C35.7581 150.694 35.5699 143.417 48.0014 138.351L230.154 65.1277C238.589 61.8309 245.965 67.0861 243.218 80.5251L243.21 80.5341L212.221 232.998C209.885 243.76 203.785 246.428 195.126 241.362Z" fill="white"/>
</g>
<defs>
<clipPath id="clip0_49190_5468">
<rect width="308" height="308" fill="white"/>
</clipPath>
</defs>
</svg>
