<svg width="308" height="308" viewBox="0 0 308 308" fill="none" xmlns="http://www.w3.org/2000/svg">
<path d="M109.455 159.634C85.0314 159.634 65.3002 179.366 65.6611 203.549C65.9017 219.069 74.4439 232.544 87.0166 240.063C82.7455 233.506 80.2189 225.746 80.0986 217.385C79.7377 193.202 99.4689 173.47 123.892 173.47C128.705 173.47 133.337 174.252 137.668 175.636V127.21C133.156 126.548 128.524 126.188 123.892 126.188C123.652 126.188 123.471 126.188 123.231 126.188V161.8C118.899 160.416 114.267 159.634 109.455 159.634V159.634Z" fill="#F00044"/>
<path d="M215.123 14.3594H214.762H202.25C205.859 32.4664 216.026 48.2273 230.223 58.9352C220.898 46.6031 215.244 31.2031 215.123 14.3594V14.3594Z" fill="#F00044"/>
<path d="M288.675 88.0891C283.923 88.0891 279.351 87.6078 274.839 86.7656V121.476C258.477 121.476 242.595 118.288 227.677 111.911C218.052 107.82 209.088 102.587 200.847 96.2703L201.088 203.288C200.967 227.351 191.463 249.909 174.258 266.934C160.241 280.77 142.495 289.613 123.245 292.44C118.734 293.102 114.102 293.463 109.47 293.463C88.8961 293.463 69.2852 286.785 53.3438 274.453C55.1484 276.619 57.0734 278.724 59.1789 280.77C76.5039 297.854 99.4836 307.298 123.967 307.298C128.599 307.298 133.231 306.938 137.743 306.276C156.993 303.448 174.739 294.605 188.755 280.77C205.96 263.745 215.465 241.187 215.585 217.124L214.683 110.106C222.864 116.423 231.827 121.716 241.513 125.747C256.491 132.063 272.373 135.312 288.675 135.312" fill="#F00044"/>
<path d="M59.03 152.891C76.1745 135.867 98.9737 126.423 123.277 126.242V113.429C118.765 112.767 114.133 112.406 109.501 112.406C84.9573 112.406 61.9175 121.851 44.5925 139.055C27.5682 155.959 17.8229 179.059 17.8831 203.062C17.8831 227.245 27.4479 249.923 44.7128 267.068C47.48 269.775 50.3073 272.302 53.3151 274.588C39.7198 258.405 32.3206 238.193 32.2604 216.898C32.3206 192.895 42.0057 169.795 59.03 152.891V152.891Z" fill="#33F4F0"/>
<path d="M274.878 86.8546V73.9812H274.758C258.034 73.9812 242.634 68.4468 230.242 59.0625C241.01 73.2593 256.771 83.3656 274.878 86.8546Z" fill="#33F4F0"/>
<path d="M121.464 259.98C127.179 260.281 132.653 259.498 137.706 257.874C155.151 252.159 167.724 235.917 167.724 216.788L167.784 145.202V14.4219H202.194C201.291 9.91016 200.81 5.33828 200.75 0.585938H153.347V131.305L153.287 202.891C153.287 222.021 140.714 238.263 123.269 243.978C118.216 245.663 112.741 246.445 107.027 246.084C99.7476 245.663 92.95 243.497 87.0547 240.008C94.4539 251.438 107.087 259.198 121.464 259.98V259.98Z" fill="#33F4F0"/>
<path d="M123.347 292.402C142.597 289.574 160.343 280.731 174.36 266.895C191.564 249.871 201.069 227.313 201.189 203.25L200.949 96.232C209.13 102.548 218.093 107.842 227.778 111.873C242.757 118.189 258.639 121.438 274.941 121.438V86.7274C256.834 83.2383 241.073 73.132 230.305 58.9352C216.108 48.2273 205.882 32.4664 202.332 14.3594H167.863V145.079L167.803 216.665C167.803 235.795 155.23 252.037 137.785 257.752C132.732 259.436 127.257 260.218 121.542 259.857C107.105 259.075 94.5323 251.315 87.1331 239.945C74.5604 232.486 66.0183 218.951 65.7776 203.43C65.4167 179.248 85.1479 159.516 109.571 159.516C114.384 159.516 119.016 160.298 123.347 161.682V126.07C99.044 126.25 76.2448 135.695 59.1003 152.719C42.0761 169.623 32.3307 192.723 32.3909 216.665C32.3909 237.96 39.7901 258.173 53.4456 274.355C69.4472 286.687 88.9979 293.364 109.571 293.364C114.203 293.424 118.835 293.063 123.347 292.402V292.402Z" fill="black"/>
</svg>
